<?xml version="1.0" encoding="utf-8"?>
<!-- Generator: Adobe Illustrator 26.1.0, SVG Export Plug-In . SVG Version: 6.00 Build 0)  -->
<svg version="1.1" id="Camada_1" xmlns="http://www.w3.org/2000/svg" xmlns:xlink="http://www.w3.org/1999/xlink" x="0px" y="0px"
	 viewBox="0 0 1366 768" style="enable-background:new 0 0 1366 768;" xml:space="preserve">
<style type="text/css">
	.st0{fill:#FFFFFF;}
	.st1{font-family:'MyriadPro-Regular';}
	.st2{font-size:35.7563px;}
	.st3{fill:none;stroke:#000000;stroke-miterlimit:10;}
	.st4{font-size:76.7062px;}
</style>
<g>
	<path class="st0" d="M129,350.5c-6.34,0-11.5-5.16-11.5-11.5V113c0-6.34,5.16-11.5,11.5-11.5h226c6.34,0,11.5,5.16,11.5,11.5v226
		c0,6.34-5.16,11.5-11.5,11.5H129z"/>
	<path d="M355,102c6.07,0,11,4.93,11,11v226c0,6.07-4.93,11-11,11H129c-6.07,0-11-4.93-11-11V113c0-6.07,4.93-11,11-11H355 M355,101
		H129c-6.6,0-12,5.4-12,12v226c0,6.6,5.4,12,12,12h226c6.6,0,12-5.4,12-12V113C367,106.4,361.6,101,355,101L355,101z"/>
</g>
<g>
	<path class="st0" d="M129,707.5c-6.34,0-11.5-5.16-11.5-11.5V470c0-6.34,5.16-11.5,11.5-11.5h226c6.34,0,11.5,5.16,11.5,11.5v226
		c0,6.34-5.16,11.5-11.5,11.5H129z"/>
	<path d="M355,459c6.07,0,11,4.93,11,11v226c0,6.07-4.93,11-11,11H129c-6.07,0-11-4.93-11-11V470c0-6.07,4.93-11,11-11H355 M355,458
		H129c-6.6,0-12,5.4-12,12v226c0,6.6,5.4,12,12,12h226c6.6,0,12-5.4,12-12V470C367,463.4,361.6,458,355,458L355,458z"/>
</g>
<g>
	<path class="st0" d="M772,350.5c-6.34,0-11.5-5.16-11.5-11.5V113c0-6.34,5.16-11.5,11.5-11.5h226c6.34,0,11.5,5.16,11.5,11.5v226
		c0,6.34-5.16,11.5-11.5,11.5H772z"/>
	<path d="M998,102c6.07,0,11,4.93,11,11v226c0,6.07-4.93,11-11,11H772c-6.07,0-11-4.93-11-11V113c0-6.07,4.93-11,11-11H998 M998,101
		H772c-6.6,0-12,5.4-12,12v226c0,6.6,5.4,12,12,12h226c6.6,0,12-5.4,12-12V113C1010,106.4,1004.6,101,998,101L998,101z"/>
</g>
<g>
	<path class="st0" d="M772,723.5c-6.34,0-11.5-5.16-11.5-11.5V486c0-6.34,5.16-11.5,11.5-11.5h226c6.34,0,11.5,5.16,11.5,11.5v226
		c0,6.34-5.16,11.5-11.5,11.5H772z"/>
	<path d="M998,475c6.07,0,11,4.93,11,11v226c0,6.07-4.93,11-11,11H772c-6.07,0-11-4.93-11-11V486c0-6.07,4.93-11,11-11H998 M998,474
		H772c-6.6,0-12,5.4-12,12v226c0,6.6,5.4,12,12,12h226c6.6,0,12-5.4,12-12V486C1010,479.4,1004.6,474,998,474L998,474z"/>
</g>
<text transform="matrix(1 0 0 1 182.4717 599.0615)" class="st1 st2">Produto</text>
<text transform="matrix(1 0 0 1 185.4717 221.0615)" class="st1 st2">Produto</text>
<text transform="matrix(1 0 0 1 820.4717 221.0615)" class="st1 st2">Produto</text>
<text transform="matrix(1 0 0 1 818.4717 603.0615)" class="st1 st2">Produto</text>
<circle class="st3" cx="1211" cy="551" r="64"/>
<text transform="matrix(1 0 0 1 1189.4727 574.043)" class="st1 st4">o</text>
<g>
	<g>
		<path d="M1205.88,56.3c33.2-0.17,66.4-0.33,99.6-0.5c4.79-0.02,9.59-0.05,14.38-0.07c7.72-0.04,7.74-12.04,0-12
			c-33.2,0.17-66.4,0.33-99.6,0.5c-4.79,0.02-9.59,0.05-14.38,0.07C1198.16,44.34,1198.15,56.34,1205.88,56.3L1205.88,56.3z"/>
	</g>
</g>
<g>
	<g>
		<path d="M1206.08,128.03c33.2-0.17,66.4-0.33,99.6-0.5c4.79-0.02,9.59-0.05,14.38-0.07c7.72-0.04,7.74-12.04,0-12
			c-33.2,0.17-66.4,0.33-99.6,0.5c-4.79,0.02-9.59,0.05-14.38,0.07C1198.36,116.07,1198.34,128.07,1206.08,128.03L1206.08,128.03z"
			/>
	</g>
</g>
<g>
	<g>
		<path d="M1205.98,92.16c33.2-0.17,66.4-0.33,99.6-0.5c4.79-0.02,9.59-0.05,14.38-0.07c7.72-0.04,7.74-12.04,0-12
			c-33.2,0.17-66.4,0.33-99.6,0.5c-4.79,0.02-9.59,0.05-14.38,0.07C1198.26,80.2,1198.24,92.2,1205.98,92.16L1205.98,92.16z"/>
	</g>
</g>
</svg>
